<?xml version="1.0" encoding="UTF-8" standalone="no"?>
<!DOCTYPE svg PUBLIC "-//W3C//DTD SVG 1.1//EN" "http://www.w3.org/Graphics/SVG/1.1/DTD/svg11.dtd">
<svg width="100%" height="100%" viewBox="0 0 3000 3000" version="1.1" xmlns="http://www.w3.org/2000/svg" xmlns:xlink="http://www.w3.org/1999/xlink" xml:space="preserve" xmlns:serif="http://www.serif.com/" style="fill-rule:evenodd;clip-rule:evenodd;stroke-linejoin:round;stroke-miterlimit:2;">
    <g id="hvizdicka" transform="matrix(1.14089,-0.0219778,0.0219778,1.14089,-96.3925,-181.408)">
        <g>
            <g transform="matrix(-4.98438,-0.220637,-0.220637,4.98438,7874.72,-8898.37)">
                <circle cx="1215" cy="2029" r="21" style="fill:white;"/>
            </g>
            <g transform="matrix(-4.98438,-0.220637,-0.220637,4.98438,7857.72,-8315.37)">
                <circle cx="1215" cy="2029" r="21" style="fill:white;"/>
            </g>
            <g transform="matrix(-4.98438,-0.220637,-0.220637,4.98438,7853.72,-7807.37)">
                <circle cx="1215" cy="2029" r="21" style="fill:white;"/>
            </g>
        </g>
        <g>
            <g transform="matrix(4.98926,0,0,4.98926,-5573.47,-9027.68)">
                <path d="M1359,2050L1266,1962L1247,1945C1247,1945 1243.04,1941.53 1236,1943C1232.8,1949.22 1235.62,1952.61 1237,1955C1238.38,1957.39 1254,1978 1254,1978L1276,2009L1291,2034L1303,2055C1303,2055 1311.7,2066.76 1309,2073C1308.91,2075.09 1303.71,2085.24 1293,2089C1282.29,2088.84 1237,2091 1237,2091L1203,2094L1162,2096L1147,2098C1147,2098 1139.24,2100.14 1141,2106C1141.23,2107.38 1143.13,2111.96 1152,2116C1163.05,2117.31 1176,2119 1176,2119L1228,2126L1264,2131L1282,2133C1282,2133 1302.07,2133.89 1305,2149C1304.88,2150.15 1307.93,2159.17 1292,2178C1276.07,2196.83 1274,2200 1274,2200L1252,2234L1237,2255C1237,2255 1232.55,2262.98 1235,2267C1236.58,2268.07 1239.38,2269.2 1249,2267C1256.55,2261.74 1281,2239 1281,2239L1326,2205L1347,2187C1347,2187 1354.25,2180.33 1354,2175C1353.75,2169.67 1352.54,2164.3 1346,2154C1342.95,2149.59 1332.91,2131.92 1333,2117C1333.09,2102.08 1334,2086.93 1354,2068C1356.27,2065.85 1358.29,2064.05 1359.4,2059.4C1360.67,2054.07 1359.85,2051.72 1359,2050Z" style="fill:white;"/>
            </g>
            <g transform="matrix(4.98926,0,0,4.98926,-5573.47,-9032.67)">
                <circle cx="1215" cy="2029" r="21" style="fill:white;"/>
            </g>
            <g transform="matrix(4.98926,0,0,4.98926,-5588.44,-8244.37)">
                <circle cx="1215" cy="2029" r="21" style="fill:white;"/>
            </g>
            <g transform="matrix(-4.98657,-0.16372,-0.16372,4.98657,8616.01,-8804.31)">
                <path d="M1359,2050L1266,1962L1247,1945C1247,1945 1243.04,1941.53 1236,1943C1232.8,1949.22 1235.62,1952.61 1237,1955C1238.38,1957.39 1254,1978 1254,1978L1276,2009L1291,2034L1303,2055C1303,2055 1311.7,2066.76 1309,2073C1308.91,2075.09 1303.71,2085.24 1293,2089C1282.29,2088.84 1237,2091 1237,2091L1203,2094L1162,2096L1147,2098C1147,2098 1139.24,2100.14 1141,2106C1141.23,2107.38 1143.13,2111.96 1152,2116C1163.05,2117.31 1176,2119 1176,2119L1228,2126L1264,2131L1282,2133C1282,2133 1302.07,2133.89 1305,2149C1304.88,2150.15 1307.93,2159.17 1292,2178C1276.07,2196.83 1274,2200 1274,2200L1252,2234L1237,2255C1237,2255 1232.55,2262.98 1235,2267C1236.58,2268.07 1239.38,2269.2 1249,2267C1256.55,2261.74 1281,2239 1281,2239L1326,2205L1347,2187C1347,2187 1354.25,2180.33 1354,2175C1353.75,2169.67 1352.54,2164.3 1346,2154C1342.95,2149.59 1332.91,2131.92 1333,2117C1333.09,2102.08 1334,2086.93 1354,2068C1356.27,2065.85 1358.29,2064.05 1359.4,2059.4C1360.67,2054.07 1359.85,2051.72 1359,2050Z" style="fill:white;"/>
            </g>
            <g transform="matrix(-4.98657,-0.16372,-0.16372,4.98657,8616.17,-8809.3)">
                <circle cx="1215" cy="2029" r="21" style="fill:white;"/>
            </g>
            <g transform="matrix(-4.98657,-0.16372,-0.16372,4.98657,8605.26,-8020.93)">
                <circle cx="1215" cy="2029" r="21" style="fill:white;"/>
            </g>
        </g>
    </g>
</svg>
